<svg width="80" height="80" viewBox="0 0 80 80" fill="none" xmlns="http://www.w3.org/2000/svg">
<rect width="80" height="80" fill="#7F9161"/>
<g clip-path="url(#clip0_259_4744)">
<path d="M32.3833 25.935C37.1733 23.1117 43.4133 22.0617 47.6833 25.345C49.4366 26.695 50.0833 28.69 50.4683 30.295L50.5966 30.8867L50.7133 31.4917C50.89 32.4417 51.07 33.4083 51.4916 34.2583C51.87 35.02 52.3816 35.6967 52.93 36.3517L53.6 37.1283C54.2366 37.8583 54.875 38.5883 55.3783 39.4067C56.0783 40.5467 56.6216 41.8883 56.7116 43.53C56.8 45.1583 56.435 46.9567 55.5233 49.01C52.4366 55.9533 44.1283 57.8133 37.1483 56.1433C30.0616 54.45 23.3333 48.9267 23.3333 40C23.3333 33.9333 27.525 28.8 32.3833 25.935ZM40 31.6667C37.7898 31.6667 35.6702 32.5446 34.1074 34.1074C32.5446 35.6702 31.6666 37.7899 31.6666 40C31.6666 42.2101 32.5446 44.3297 34.1074 45.8926C35.6702 47.4554 37.7898 48.3333 40 48.3333C42.2101 48.3333 44.3297 47.4554 45.8925 45.8926C47.4553 44.3297 48.3333 42.2101 48.3333 40C48.3333 37.7899 47.4553 35.6702 45.8925 34.1074C44.3297 32.5446 42.2101 31.6667 40 31.6667ZM40 35C41.3261 35 42.5978 35.5268 43.5355 36.4645C44.4732 37.4021 45 38.6739 45 40C45 41.3261 44.4732 42.5978 43.5355 43.5355C42.5978 44.4732 41.3261 45 40 45C38.6739 45 37.4021 44.4732 36.4644 43.5355C35.5268 42.5978 35 41.3261 35 40C35 38.6739 35.5268 37.4021 36.4644 36.4645C37.4021 35.5268 38.6739 35 40 35Z" fill="white"/>
</g>
<defs>
<clipPath id="clip0_259_4744">
<rect width="40" height="40" fill="white" transform="translate(20 20)"/>
</clipPath>
</defs>
</svg>
