<svg width="80" height="80" viewBox="0 0 80 80" fill="none" xmlns="http://www.w3.org/2000/svg">
<rect width="80" height="80" fill="#597C7C"/>
<path d="M23.3333 41.6667C24.2174 41.6667 25.0652 41.3155 25.6903 40.6904C26.3155 40.0652 26.6666 39.2174 26.6666 38.3333V31.6667C26.6666 30.7826 27.0178 29.9348 27.643 29.3096C28.2681 28.6845 29.1159 28.3333 30 28.3333C30.884 28.3333 31.7319 28.6845 32.357 29.3096C32.9821 29.9348 33.3333 30.7826 33.3333 31.6667V53.3333C33.3333 54.2174 33.6845 55.0652 34.3096 55.6904C34.9347 56.3155 35.7826 56.6667 36.6666 56.6667C37.5507 56.6667 38.3985 56.3155 39.0237 55.6904C39.6488 55.0652 40 54.2174 40 53.3333V26.6667C40 25.7826 40.3512 24.9348 40.9763 24.3096C41.6014 23.6845 42.4493 23.3333 43.3333 23.3333C44.2174 23.3333 45.0652 23.6845 45.6903 24.3096C46.3155 24.9348 46.6666 25.7826 46.6666 26.6667V48.3333C46.6666 49.2174 47.0178 50.0652 47.643 50.6904C48.2681 51.3155 49.1159 51.6667 50 51.6667C50.884 51.6667 51.7319 51.3155 52.357 50.6904C52.9821 50.0652 53.3333 49.2174 53.3333 48.3333V41.6667C53.3333 40.7826 53.6845 39.9348 54.3096 39.3096C54.9347 38.6845 55.7826 38.3333 56.6666 38.3333" stroke="white" stroke-width="3.33333" stroke-linecap="round" stroke-linejoin="round"/>
</svg>
