<svg width="80" height="80" viewBox="0 0 80 80" fill="none" xmlns="http://www.w3.org/2000/svg">
<rect width="80" height="80" fill="#C94736"/>
<path d="M40 51.6667C41.8334 51.6667 43.3334 53.1667 43.3334 55C43.3334 56.8333 41.8334 58.3333 40 58.3333C38.1667 58.3333 36.6667 56.8333 36.6667 55C36.6667 53.1667 38.1667 51.6667 40 51.6667ZM40 21.6667C41.8334 21.6667 43.3334 23.1667 43.3334 25C43.3334 26.8333 41.8334 28.3333 40 28.3333C38.1667 28.3333 36.6667 26.8333 36.6667 25C36.6667 23.1667 38.1667 21.6667 40 21.6667ZM30 46.6667C31.8334 46.6667 33.3334 48.1667 33.3334 50C33.3334 51.8333 31.8334 53.3333 30 53.3333C28.1667 53.3333 26.6667 51.8333 26.6667 50C26.6667 48.1667 28.1667 46.6667 30 46.6667ZM25 36.6667C26.8334 36.6667 28.3334 38.1667 28.3334 40C28.3334 41.8333 26.8334 43.3333 25 43.3333C23.1667 43.3333 21.6667 41.8333 21.6667 40C21.6667 38.1667 23.1667 36.6667 25 36.6667ZM30 26.6667C31.8334 26.6667 33.3334 28.1667 33.3334 30C33.3334 31.8333 31.8334 33.3333 30 33.3333C28.1667 33.3333 26.6667 31.8333 26.6667 30C26.6667 28.1667 28.1667 26.6667 30 26.6667ZM50 46.6667C51.8334 46.6667 53.3334 48.1667 53.3334 50C53.3334 51.8333 51.8334 53.3333 50 53.3333C48.1667 53.3333 46.6667 51.8333 46.6667 50C46.6667 48.1667 48.1667 46.6667 50 46.6667ZM55 36.6667C56.8334 36.6667 58.3334 38.1667 58.3334 40C58.3334 41.8333 56.8334 43.3333 55 43.3333C53.1667 43.3333 51.6667 41.8333 51.6667 40C51.6667 38.1667 53.1667 36.6667 55 36.6667ZM50 26.6667C51.8334 26.6667 53.3334 28.1667 53.3334 30C53.3334 31.8333 51.8334 33.3333 50 33.3333C48.1667 33.3333 46.6667 31.8333 46.6667 30C46.6667 28.1667 48.1667 26.6667 50 26.6667Z" fill="white"/>
</svg>
