<svg width="80" height="80" viewBox="0 0 80 80" fill="none" xmlns="http://www.w3.org/2000/svg">
<rect width="80" height="80" fill="#97A0AC"/>
<path d="M23.3334 38.3333L26.75 38.5C26.9519 36.6757 27.5302 34.9132 28.4482 33.3239C29.3662 31.7346 30.604 30.3531 32.0834 29.2667L30.2167 26.4C29.7667 25.6 30 24.5833 30.8334 24.1167C31.6667 23.6667 32.65 23.9333 33.1167 24.7333L34.6667 27.7667C36.3514 27.0422 38.1661 26.6685 40 26.6685C41.8339 26.6685 43.6486 27.0422 45.3334 27.7667L46.8834 24.7333C47.35 23.9333 48.3334 23.6667 49.1667 24.1167C50 24.5833 50.2334 25.6 49.7834 26.4L47.9167 29.2667C49.396 30.3531 50.6338 31.7346 51.5518 33.3239C52.4698 34.9132 53.0481 36.6757 53.25 38.5L56.6667 38.3333C57.1087 38.3333 57.5326 38.5089 57.8452 38.8215C58.1578 39.134 58.3334 39.558 58.3334 40C58.3334 40.442 58.1578 40.8659 57.8452 41.1785C57.5326 41.4911 57.1087 41.6667 56.6667 41.6667L53.25 41.5C53.0481 43.3242 52.4698 45.0868 51.5518 46.6761C50.6338 48.2654 49.396 49.6469 47.9167 50.7333L49.7834 53.6C50.2334 54.4 50 55.4167 49.1667 55.8833C48.3334 56.3333 47.35 56.0667 46.8834 55.2667L45.3334 52.2333C43.6486 52.9578 41.8339 53.3315 40 53.3315C38.1661 53.3315 36.3514 52.9578 34.6667 52.2333L33.1167 55.2667C32.65 56.0667 31.6667 56.3333 30.8334 55.8833C30 55.4167 29.7667 54.4 30.2167 53.6L32.0834 50.7333C30.604 49.6469 29.3662 48.2654 28.4482 46.6761C27.5302 45.0868 26.9519 43.3242 26.75 41.5L23.3334 41.6667C22.8913 41.6667 22.4674 41.4911 22.1548 41.1785C21.8423 40.8659 21.6667 40.442 21.6667 40C21.6667 39.558 21.8423 39.134 22.1548 38.8215C22.4674 38.5089 22.8913 38.3333 23.3334 38.3333ZM35.1167 38.9167C35.3334 37.9 35.8834 37 36.6667 36.3167L33.9 32.0833C31.8099 33.689 30.4383 36.055 30.0834 38.6667L35.1167 38.9167ZM40 35C40.5334 35 41.0334 35.0833 41.5 35.2333L43.8 30.75C42.6334 30.2667 41.35 30 40 30C38.65 30 37.3667 30.2667 36.2 30.75L38.5 35.2333C38.9667 35.0833 39.4667 35 40 35ZM44.8834 38.9167L49.9167 38.6667C49.5618 36.055 48.1901 33.689 46.1 32.0833L43.3334 36.3167C44.1167 37 44.6667 37.9 44.8834 38.9167ZM44.8834 41.0833C44.6667 42.1 44.1167 43 43.3334 43.6833L46.1 47.9167C48.1901 46.3109 49.5618 43.945 49.9167 41.3333L44.8834 41.0833ZM40 45C39.4667 45 38.9667 44.9167 38.4834 44.7667L36.2 49.25C37.3667 49.7333 38.65 50 40 50C41.35 50 42.6334 49.7333 43.8 49.25L41.5167 44.7667C41.0334 44.9167 40.5334 45 40 45ZM35.1167 41.0833L30.0834 41.3333C30.45 44 31.85 46.35 33.9 47.9167L36.6667 43.6833C35.8834 43 35.3334 42.1 35.1167 41.0833Z" fill="white"/>
</svg>
