<svg width="80" height="80" viewBox="0 0 80 80" fill="none" xmlns="http://www.w3.org/2000/svg">
<rect width="80" height="80" fill="#82C9D7"/>
<path d="M27.1178 55.8621H52.8821C55.7286 55.8621 57.5028 53.8193 57.5028 51.2414C57.5028 50.4714 57.3021 49.6843 56.8836 48.965L43.9764 26.4814C43.105 24.9579 41.5821 24.1379 40.0086 24.1379C38.4514 24.1379 36.9114 24.9579 36.0236 26.4814L23.1164 48.9814C22.7125 49.6662 22.4987 50.4464 22.4971 51.2414C22.4971 53.82 24.2886 55.8621 27.1178 55.8621ZM40.0086 26.8164C40.6614 26.8164 41.2971 27.1007 41.6657 27.7536L54.5564 50.2536C54.7236 50.5893 54.8071 50.94 54.8071 51.2414C54.8071 52.2793 54.0036 53.2343 52.8486 53.2343H40.0086V26.8164Z" fill="white"/>
</svg>
